<svg width="400" height="260" viewBox="0 0 400 260" xmlns="http://www.w3.org/2000/svg">
  <rect width="400" height="260" fill="#FCEFEA"/>
  <rect width="400" height="260" fill="#EAF3EA" opacity="0.6"/>
  <ellipse cx="200" cy="232" rx="190" ry="28" fill="#DCE9DC"/>

  <!-- desk -->
  <rect x="40" y="190" width="320" height="14" rx="4" fill="#22303D"/>

  <!-- laptop angled -->
  <g transform="translate(150,150)">
    <rect x="0" y="0" width="150" height="92" rx="8" fill="#2C3E4F"/>
    <rect x="8" y="8" width="134" height="76" rx="4" fill="#FFFFFF"/>
    <rect x="20" y="18" width="60" height="20" rx="4" fill="#E7F4E8"/>
    <rect x="20" y="44" width="100" height="6" rx="3" fill="#A7B3BC"/>
    <rect x="20" y="56" width="80" height="6" rx="3" fill="#A7B3BC"/>
    <rect x="20" y="68" width="50" height="10" rx="5" fill="#4CAF50"/>
    <rect x="-10" y="92" width="170" height="10" rx="4" fill="#1A2530"/>
  </g>

  <!-- notebook -->
  <g transform="translate(60,165)">
    <rect width="70" height="50" rx="6" fill="#FFFFFF" stroke="#CFD8DD" stroke-width="2"/>
    <rect x="12" y="12" width="46" height="5" rx="2.5" fill="#4CAF50"/>
    <rect x="12" y="24" width="46" height="4" rx="2" fill="#CFD8DD"/>
    <rect x="12" y="32" width="30" height="4" rx="2" fill="#CFD8DD"/>
  </g>

  <!-- plant -->
  <g transform="translate(330,165)">
    <rect x="-14" y="6" width="28" height="24" rx="4" fill="#CFD8DD"/>
    <path d="M0 6 C-4 -22, -26 -24, -32 -36 C-10 -36, 0 -20, 0 6 Z" fill="#5FBB62"/>
    <path d="M0 6 C4 -18, 22 -22, 28 -34 C10 -32, 0 -18, 0 6 Z" fill="#4CAF50"/>
  </g>

  <circle cx="345" cy="100" r="5" fill="#4CAF50" opacity="0.5"/>
</svg>
