<svg width="400" height="260" viewBox="0 0 400 260" xmlns="http://www.w3.org/2000/svg">
  <rect width="400" height="260" fill="#EEF2F6"/>
  <ellipse cx="200" cy="230" rx="190" ry="30" fill="#E1E8ED"/>

  <!-- laptop -->
  <rect x="120" y="110" width="160" height="100" rx="8" fill="#22303D"/>
  <rect x="130" y="118" width="140" height="84" rx="4" fill="#FFFFFF"/>
  <rect x="142" y="128" width="60" height="6" rx="3" fill="#22303D"/>
  <rect x="142" y="140" width="40" height="5" rx="2.5" fill="#A7B3BC"/>
  <rect x="142" y="158" width="14" height="36" fill="#CFEFD0"/>
  <rect x="160" y="172" width="14" height="22" fill="#4CAF50"/>
  <rect x="178" y="150" width="14" height="44" fill="#4CAF50"/>
  <rect x="196" y="166" width="14" height="28" fill="#CFEFD0"/>
  <rect x="100" y="210" width="200" height="10" rx="4" fill="#1A2530"/>

  <!-- coffee cup -->
  <g transform="translate(75,180)">
    <rect x="-16" y="-6" width="32" height="34" rx="6" fill="#FFFFFF" stroke="#CFD8DD" stroke-width="2"/>
    <path d="M16 0 C28 0, 28 18, 16 18" fill="none" stroke="#CFD8DD" stroke-width="3"/>
    <ellipse cx="0" cy="-6" rx="16" ry="4" fill="#8C6A4E"/>
  </g>

  <!-- plant -->
  <g transform="translate(330,170)">
    <rect x="-14" y="10" width="28" height="26" rx="4" fill="#CFD8DD"/>
    <path d="M0 10 C-4 -20, -28 -22, -34 -34 C-12 -34, 0 -18, 0 10 Z" fill="#5FBB62"/>
    <path d="M0 10 C4 -16, 24 -20, 30 -32 C10 -30, 0 -16, 0 10 Z" fill="#4CAF50"/>
  </g>

  <circle cx="60" cy="80" r="5" fill="#4CAF50" opacity="0.5"/>
</svg>
