<svg width="520" height="420" viewBox="0 0 520 420" xmlns="http://www.w3.org/2000/svg">
  <ellipse cx="260" cy="395" rx="190" ry="14" fill="#EEF2F6"/>

  <!-- kiosk stand -->
  <rect x="240" y="330" width="20" height="50" fill="#CFD8DD"/>
  <rect x="200" y="378" width="100" height="12" rx="6" fill="#CFD8DD"/>

  <!-- kiosk screen -->
  <rect x="175" y="80" width="170" height="260" rx="18" fill="#22303D"/>
  <rect x="190" y="100" width="140" height="225" rx="10" fill="#FFFFFF"/>

  <!-- avatar -->
  <circle cx="260" cy="150" r="26" fill="#E7F4E8"/>
  <circle cx="260" cy="142" r="10" fill="#4CAF50"/>
  <path d="M242 168 C242 156, 278 156, 278 168 Z" fill="#4CAF50"/>

  <!-- input fields -->
  <rect x="210" y="200" width="100" height="16" rx="8" fill="#EEF2F6"/>
  <rect x="210" y="226" width="100" height="16" rx="8" fill="#EEF2F6"/>
  <circle cx="222" cy="234" r="2.4" fill="#9AA7B1"/>
  <circle cx="230" cy="234" r="2.4" fill="#9AA7B1"/>
  <circle cx="238" cy="234" r="2.4" fill="#9AA7B1"/>

  <!-- button -->
  <rect x="210" y="258" width="100" height="26" rx="13" fill="#4CAF50"/>
  <rect x="240" y="266" width="40" height="10" rx="5" fill="#FFFFFF" opacity="0.85"/>

  <rect x="210" y="298" width="100" height="6" rx="3" fill="#EEF2F6"/>

  <!-- person sitting (left) -->
  <g>
    <rect x="60" y="300" width="14" height="60" rx="6" fill="#CFD8DD"/>
    <ellipse cx="67" cy="362" rx="22" ry="6" fill="#E7ECF1"/>
    <rect x="40" y="245" width="55" height="80" rx="22" fill="#4CAF50"/>
    <rect x="44" y="310" width="20" height="55" rx="9" fill="#22303D"/>
    <rect x="72" y="310" width="20" height="55" rx="9" fill="#2C3E4F"/>
    <path d="M86 255 C115 260, 135 280, 150 300 L138 312 C122 292, 105 278, 80 270 Z" fill="#3D9140"/>
    <circle cx="63" cy="220" r="26" fill="#F2C29A"/>
    <path d="M38 218 C36 192, 58 176, 78 184 C94 190, 95 206, 90 218 C85 200, 70 192, 55 196 C44 199, 39 208, 38 218 Z" fill="#22303D"/>
  </g>

  <!-- person standing (right) -->
  <g>
    <ellipse cx="445" cy="372" rx="26" ry="7" fill="#E7ECF1"/>
    <rect x="420" y="270" width="20" height="95" rx="9" fill="#22303D"/>
    <rect x="450" y="270" width="20" height="95" rx="9" fill="#2C3E4F"/>
    <rect x="412" y="178" width="64" height="100" rx="24" fill="#4CAF50"/>
    <path d="M418 190 C398 198, 388 215, 392 235 L408 233 C406 218, 414 205, 430 198 Z" fill="#4CAF50"/>
    <path d="M470 190 C492 198, 500 215, 496 235 L480 233 C482 218, 474 205, 460 198 Z" fill="#3D9140"/>
    <circle cx="444" cy="148" r="28" fill="#F2C29A"/>
    <path d="M416 146 C414 118, 438 102, 460 110 C480 117, 482 134, 477 146 C471 128, 454 120, 437 124 C424 127, 418 136, 416 146 Z" fill="#22303D"/>
  </g>

  <circle cx="490" cy="90" r="6" fill="#A9DDAA"/>
  <circle cx="40" cy="120" r="5" fill="#A9DDAA"/>
</svg>
