<svg width="520" height="440" viewBox="0 0 520 440" xmlns="http://www.w3.org/2000/svg">
  <ellipse cx="260" cy="415" rx="190" ry="14" fill="#EEF2F6"/>

  <!-- leaf -->
  <path d="M455 330 C500 300, 500 250, 470 210 C460 260, 440 290, 420 320 Z" fill="#CFEFD0"/>
  <path d="M460 280 C495 260, 498 225, 478 195 C470 235, 455 258, 440 282 Z" fill="#A9DDAA"/>

  <!-- phone -->
  <rect x="155" y="60" width="190" height="340" rx="28" fill="#22303D"/>
  <rect x="170" y="90" width="160" height="280" rx="10" fill="#FFFFFF"/>
  <rect x="225" y="72" width="50" height="8" rx="4" fill="#1A2530"/>

  <!-- avatar + lock -->
  <circle cx="250" cy="140" r="26" fill="#E7F4E8"/>
  <circle cx="250" cy="132" r="10" fill="#4CAF50"/>
  <path d="M232 158 C232 146, 268 146, 268 158 Z" fill="#4CAF50"/>

  <rect x="200" y="190" width="100" height="14" rx="7" fill="#EEF2F6"/>
  <rect x="200" y="214" width="100" height="14" rx="7" fill="#EEF2F6"/>
  <rect x="200" y="238" width="60" height="14" rx="7" fill="#EEF2F6"/>

  <rect x="200" y="270" width="100" height="24" rx="12" fill="#4CAF50"/>
  <rect x="225" y="277" width="50" height="10" rx="5" fill="#FFFFFF" opacity="0.85"/>

  <rect x="200" y="312" width="100" height="6" rx="3" fill="#EEF2F6"/>
  <rect x="200" y="328" width="70" height="6" rx="3" fill="#EEF2F6"/>

  <!-- big lock badge -->
  <g transform="translate(330,150)">
    <circle r="34" fill="#4CAF50"/>
    <rect x="-14" y="-4" width="28" height="22" rx="4" fill="#FFFFFF"/>
    <path d="M-9 -4 V-12 C-9 -20, 9 -20, 9 -12 V-4" fill="none" stroke="#FFFFFF" stroke-width="5"/>
    <circle cx="0" cy="8" r="3" fill="#4CAF50"/>
  </g>

  <!-- person -->
  <g>
    <ellipse cx="95" cy="412" rx="30" ry="8" fill="#E7ECF1"/>
    <rect x="70" y="320" width="22" height="95" rx="10" fill="#22303D"/>
    <rect x="100" y="320" width="22" height="95" rx="10" fill="#2C3E4F"/>
    <rect x="60" y="225" width="70" height="110" rx="26" fill="#4CAF50"/>
    <path d="M70 235 C40 250, 30 280, 50 320 L72 312 C58 288, 62 262, 84 245 Z" fill="#3D9140"/>
    <path d="M120 235 C140 250, 150 270, 142 295 L122 290 C126 272, 120 255, 105 245 Z" fill="#4CAF50"/>
    <circle cx="95" cy="195" r="29" fill="#F2C29A"/>
    <path d="M67 192 C65 164, 90 148, 112 156 C132 163, 134 180, 129 192 C123 172, 106 164, 89 168 C76 171, 69 180, 67 192 Z" fill="#22303D"/>
  </g>

  <!-- thumbs up bubble -->
  <g transform="translate(58,165)">
    <circle r="26" fill="#FFFFFF"/>
    <path d="M-8 -4 L-8 10 L-2 10 L-2 -4 Z M-2 -2 L4 -10 C6 -12, 9 -10, 8 -7 L6 -2 L9 -2 C12 -2, 13 1, 11 3 L4 10 L-2 10 Z" fill="#4CAF50" transform="scale(0.9)"/>
  </g>

  <circle cx="430" cy="370" r="6" fill="#A9DDAA"/>
  <circle cx="60" cy="80" r="5" fill="#A9DDAA"/>
</svg>
