<svg width="640" height="460" viewBox="0 0 640 460" xmlns="http://www.w3.org/2000/svg">
  <!-- floating dots -->
  <circle cx="580" cy="60" r="6" fill="#A9DDAA"/>
  <circle cx="610" cy="100" r="4" fill="#4CAF50"/>
  <circle cx="60" cy="380" r="5" fill="#A9DDAA"/>

  <!-- gear -->
  <g transform="translate(150,335)">
    <circle r="34" fill="#E7ECF1"/>
    <circle r="20" fill="#FFFFFF"/>
    <g fill="#E7ECF1">
      <rect x="-6" y="-46" width="12" height="16" rx="3"/>
      <rect x="-6" y="30" width="12" height="16" rx="3"/>
      <rect x="-46" y="-6" width="16" height="12" rx="3"/>
      <rect x="30" y="-6" width="16" height="12" rx="3"/>
      <rect x="-6" y="-46" width="12" height="16" rx="3" transform="rotate(45)"/>
      <rect x="-6" y="30" width="12" height="16" rx="3" transform="rotate(45)"/>
      <rect x="-46" y="-6" width="16" height="12" rx="3" transform="rotate(45)"/>
      <rect x="30" y="-6" width="16" height="12" rx="3" transform="rotate(45)"/>
    </g>
    <circle r="8" fill="#CFD8DD"/>
  </g>

  <!-- monitor stand -->
  <rect x="195" y="305" width="18" height="34" fill="#CFD8DD"/>
  <rect x="160" y="336" width="88" height="12" rx="6" fill="#CFD8DD"/>

  <!-- monitor -->
  <rect x="40" y="55" width="370" height="252" rx="16" fill="#22303D"/>
  <rect x="40" y="55" width="370" height="30" rx="16" fill="#1A2530"/>
  <circle cx="58" cy="70" r="4" fill="#4CAF50"/>
  <circle cx="72" cy="70" r="4" fill="#5C6B78"/>
  <circle cx="86" cy="70" r="4" fill="#5C6B78"/>

  <!-- code lines -->
  <g>
    <rect x="60" y="105" width="70" height="8" rx="4" fill="#4CAF50"/>
    <rect x="60" y="123" width="110" height="8" rx="4" fill="#5C6B78"/>
    <rect x="60" y="141" width="90" height="8" rx="4" fill="#5C6B78"/>
    <rect x="78" y="159" width="80" height="8" rx="4" fill="#79C77C"/>
    <rect x="60" y="177" width="60" height="8" rx="4" fill="#5C6B78"/>
    <rect x="60" y="195" width="100" height="8" rx="4" fill="#5C6B78"/>
    <rect x="78" y="213" width="70" height="8" rx="4" fill="#79C77C"/>
    <rect x="60" y="231" width="50" height="8" rx="4" fill="#5C6B78"/>
    <rect x="60" y="249" width="120" height="8" rx="4" fill="#5C6B78"/>
    <rect x="60" y="267" width="40" height="8" rx="4" fill="#4CAF50"/>
  </g>

  <!-- dashboard widget overlapping -->
  <rect x="205" y="120" width="175" height="140" rx="12" fill="#FFFFFF"/>
  <circle cx="240" cy="150" r="14" fill="#4CAF50"/>
  <rect x="262" y="144" width="95" height="7" rx="3.5" fill="#22303D"/>
  <rect x="262" y="157" width="65" height="6" rx="3" fill="#A7B3BC"/>
  <rect x="222" y="180" width="14" height="50" rx="3" fill="#CFEFD0"/>
  <rect x="245" y="165" width="14" height="65" rx="3" fill="#4CAF50"/>
  <rect x="268" y="195" width="14" height="35" rx="3" fill="#CFEFD0"/>
  <rect x="291" y="150" width="14" height="80" rx="3" fill="#4CAF50"/>
  <rect x="314" y="175" width="14" height="55" rx="3" fill="#CFEFD0"/>
  <rect x="337" y="160" width="14" height="70" rx="3" fill="#4CAF50"/>

  <!-- person -->
  <g>
    <ellipse cx="490" cy="412" rx="34" ry="9" fill="#E7ECF1"/>
    <!-- legs -->
    <rect x="462" y="300" width="22" height="105" rx="10" fill="#22303D"/>
    <rect x="494" y="300" width="22" height="105" rx="10" fill="#2C3E4F"/>
    <!-- shoes -->
    <rect x="456" y="398" width="32" height="14" rx="7" fill="#1A2530"/>
    <rect x="490" y="398" width="32" height="14" rx="7" fill="#1A2530"/>
    <!-- torso -->
    <rect x="455" y="200" width="68" height="108" rx="26" fill="#4CAF50"/>
    <!-- arms -->
    <path d="M460 215 C420 225, 405 250, 412 280 L432 280 C428 258, 440 240, 466 230 Z" fill="#4CAF50"/>
    <path d="M518 215 C548 228, 558 250, 552 278 L532 278 C534 258, 524 240, 502 230 Z" fill="#3D9140"/>
    <!-- head -->
    <circle cx="489" cy="170" r="30" fill="#F2C29A"/>
    <path d="M459 168 C457 140, 480 122, 502 130 C522 137, 524 158, 519 170 C513 150, 495 142, 478 146 C465 149, 460 158, 459 168 Z" fill="#22303D"/>
    <!-- tablet held -->
    <rect x="408" y="238" width="92" height="64" rx="8" fill="#FFFFFF" stroke="#CFD8DD" stroke-width="2"/>
    <circle cx="430" cy="258" r="8" fill="#4CAF50"/>
    <rect x="445" y="252" width="45" height="6" rx="3" fill="#22303D"/>
    <rect x="445" y="263" width="35" height="5" rx="2.5" fill="#A7B3BC"/>
    <rect x="418" y="278" width="68" height="14" rx="7" fill="#4CAF50"/>
  </g>
</svg>
